<svg xmlns="http://www.w3.org/2000/svg" width="20" height="20.001" viewBox="0 0 20 20.001">
<style>#icon_-_sun{fill:#eadf53;}</style>
  <path id="icon_-_sun" data-name="icon - sun" d="M10,20a.789.789,0,0,1-.833-.833V17.5a.833.833,0,1,1,1.667,0v1.667A.789.789,0,0,1,10,20Zm6.5-2.667a.9.9,0,0,1-.583-.25L14.75,15.917a.825.825,0,1,1,1.167-1.167l1.167,1.167a.808.808,0,0,1,0,1.167.9.9,0,0,1-.583.25Zm-13,0a.9.9,0,0,1-.583-.25.8.8,0,0,1,0-1.167L4.083,14.75A.874.874,0,0,1,4.7,14.5a.675.675,0,0,1,.552.25.807.807,0,0,1,0,1.167L4.083,17.083a.9.9,0,0,1-.583.25ZM10,15a5,5,0,1,1,5-5A5,5,0,0,1,10,15Zm0-8.333A3.333,3.333,0,1,0,13.333,10,3.333,3.333,0,0,0,10,6.667Zm9.167,4.167H17.5a.833.833,0,1,1,0-1.667h1.667a.833.833,0,1,1,0,1.667Zm-16.667,0H.833a.833.833,0,0,1,0-1.667H2.5a.833.833,0,0,1,0,1.667ZM15.333,5.5c-.167,0-.5-.083-.583-.25a.805.805,0,0,1,0-1.167l1.167-1.167a.825.825,0,1,1,1.167,1.167L15.917,5.25A.9.9,0,0,1,15.333,5.5ZM4.667,5.5a.757.757,0,0,1-.583-.25L2.917,4.083A.825.825,0,1,1,4.083,2.917L5.25,4.083a.808.808,0,0,1,0,1.167A.642.642,0,0,1,4.667,5.5ZM10,3.333A.789.789,0,0,1,9.167,2.5V.833a.833.833,0,0,1,1.667,0V2.5A.789.789,0,0,1,10,3.333Z" transform="translate(0 0)" fill="#b6bccb"/>
</svg>
