<svg xmlns="http://www.w3.org/2000/svg" width="18.016" height="18.014" viewBox="0 0 22.016 22.014">
<defs><style>.a{fill:#4057e3;}</style></defs>
<path class="a" d="M11,22a11,11,0,1,1,7.788-3.212A11.013,11.013,0,0,1,11,22ZM11,2a8.964,8.964,0,1,0,6.375,2.625A8.964,8.964,0,0,0,11,2Zm0,14a.947.947,0,0,1-1-1V11a1,1,0,1,1,2,0v4a.947.947,0,0,1-1,1Zm0-8h-.2c-.1,0-.1,0-.2-.1a.13.13,0,0,1-.1-.05.13.13,0,0,0-.1-.05.1.1,0,0,1-.1-.1.968.968,0,0,1,0-1.4l.1-.1a.131.131,0,0,0,.1-.05.13.13,0,0,1,.1-.05c.1,0,.1,0,.2-.1a1.394,1.394,0,0,1,.9.3.968.968,0,0,1,0,1.4A.905.905,0,0,1,11,8Z" transform="translate(0.002 0.014)"/></svg>
