<svg xmlns="http://www.w3.org/2000/svg" width="16.668" height="16.667" viewBox="0 0 16.668 16.667">
<defs><style>#icon_-_moon{fill:#4057e3;}</style></defs>
  <path id="icon_-_moon" data-name="icon - moon" d="M8.309,16.667h-.75a8.213,8.213,0,0,1-5.642-2.994A8.412,8.412,0,0,1,.035,7.537,8.237,8.237,0,0,1,7.556,0,1.031,1.031,0,0,1,8.39.417a.9.9,0,0,1-.083.922A5.435,5.435,0,0,0,7.39,5.107,5.461,5.461,0,0,0,9.4,8.372a4.88,4.88,0,0,0,5.933,0,.713.713,0,0,1,.511-.2.742.742,0,0,1,.408.117,1,1,0,0,1,.417.75,8.394,8.394,0,0,1-8.357,7.628ZM6.136,2.01a6.8,6.8,0,0,0-4.347,5.7,6.7,6.7,0,0,0,1.5,4.9,6.583,6.583,0,0,0,4.513,2.387c.218.021.439.032.657.032a6.338,6.338,0,0,0,4.191-1.539,6.557,6.557,0,0,0,2.006-2.932,6.644,6.644,0,0,1-2.26.4A6.766,6.766,0,0,1,8.393,9.633,6.2,6.2,0,0,1,5.718,5.277,6.286,6.286,0,0,1,6.136,2.01Z" transform="translate(0.002 0)" fill="#b6bccb"/>
</svg>
